<svg xmlns="http://www.w3.org/2000/svg" viewBox="0 0 398.66 145.52"><defs><style>.cls-1{isolation:isolate;}.cls-2,.cls-4{opacity:0.45;}.cls-12,.cls-2,.cls-21,.cls-26,.cls-28,.cls-30,.cls-31,.cls-35,.cls-4,.cls-9{mix-blend-mode:multiply;}.cls-3,.cls-4{fill:#d8d7d2;}.cls-5{fill:#fff;}.cls-6{fill:#2494c6;}.cls-7{fill:#00cce3;}.cls-8{fill:#fbf6ed;}.cls-9{fill:#b6b6b6;}.cls-30,.cls-31,.cls-35,.cls-9{opacity:0.5;}.cls-10{fill:#6a616a;}.cls-11{fill:#082933;}.cls-12,.cls-28{opacity:0.75;}.cls-13,.cls-31{fill:#cfcec8;}.cls-14{fill:#001b27;}.cls-15{fill:#76a2d6;}.cls-16{fill:#ccc;}.cls-17{fill:#4bdbf2;}.cls-18{fill:#ff4855;}.cls-19{fill:#fed134;}.cls-20{fill:#00c6a7;}.cls-21{fill:#dbcdb7;opacity:0.85;}.cls-22{fill:#6495ed;}.cls-23{fill:#497dc9;}.cls-24{fill:#eee;}.cls-25{fill:#b4d7f9;}.cls-27{fill:#e1d5c3;}.cls-28{fill:#d4c4aa;}.cls-29{fill:#f24637;}.cls-30{fill:#d74855;}.cls-32{fill:#ede5da;}.cls-33{fill:#63787e;}.cls-34{fill:#b8b7ae;}.cls-35{fill:#d1d0ca;}</style></defs><title>Header_1</title><g class="cls-1"><g id="Capa_2" data-name="Capa 2"><g id="Layer_1" data-name="Layer 1"><g class="cls-2"><path class="cls-3" d="M56.42,25.43v-.19a1,1,0,0,0-.94-1h-2.8v2.15h2.8A1,1,0,0,0,56.42,25.43Z"/><path class="cls-3" d="M55.78,29h-3.1v2.17h3.1a.94.94,0,0,0,.94-1V30A1,1,0,0,0,55.78,29Z"/><path class="cls-3" d="M95,14.76H44.23A12.82,12.82,0,0,0,31.42,27.58v.25A12.82,12.82,0,0,0,44.23,40.65H95a12.82,12.82,0,0,0,12.81-12.82v-.25A12.82,12.82,0,0,0,95,14.76ZM57.16,34.16H48.61V21.48h8.44a3.27,3.27,0,0,1,3.5,3.12,2.76,2.76,0,0,1-2.12,2.95v.07a2.9,2.9,0,0,1,2.42,3.17A3.43,3.43,0,0,1,57.16,34.16Zm17.93-5.1c0,3.5-2.32,5.32-6.3,5.32s-6.32-1.82-6.32-5.32V21.48h4.07V29A2.24,2.24,0,1,0,71,29V21.48h4.07Zm10.59,5.1H81.61V29.24l-5-7.76h4.68l2.43,4.22h.07l2.44-4.22h4.44l-5,7.76Zm13.75,3.1L94.3,32.13,92.41,34l-1.77-8.35,8.48,1.65-2,2,5.13,5.13Z"/><path class="cls-3" d="M70.81,0h0A1.2,1.2,0,0,1,72,1.2V6.38a1.2,1.2,0,0,1-1.2,1.2h0a1.19,1.19,0,0,1-1.19-1.19V1.19A1.19,1.19,0,0,1,70.81,0Z"/><path class="cls-3" d="M87.11,11.42a1.22,1.22,0,0,0,1.7,0l3.66-3.67a1.19,1.19,0,0,0,0-1.69l0,0a1.21,1.21,0,0,0-1.69,0L87.1,9.71a1.19,1.19,0,0,0,0,1.69Z"/><rect class="cls-3" x="50.65" y="4.94" width="2.41" height="7.57" rx="1.2" transform="translate(9.02 39.23) rotate(-45)"/><path class="cls-3" d="M70.81,48.29h0A1.19,1.19,0,0,1,72,49.49v5.18a1.19,1.19,0,0,1-1.19,1.19h0a1.2,1.2,0,0,1-1.2-1.2V49.49A1.2,1.2,0,0,1,70.81,48.29Z"/><path class="cls-3" d="M88.81,44.45a1.2,1.2,0,0,0-1.7,0v0a1.19,1.19,0,0,0,0,1.69l3.66,3.66a1.19,1.19,0,0,0,1.69,0h0a1.19,1.19,0,0,0,0-1.69Z"/><path class="cls-3" d="M54.53,44.45a1.19,1.19,0,0,0-1.69,0l-3.66,3.67a1.19,1.19,0,0,0,0,1.69h0a1.19,1.19,0,0,0,1.69,0l3.67-3.66a1.21,1.21,0,0,0,0-1.69Z"/></g><path class="cls-4" d="M58,76.2l.32-7L52.16,66l-2.54-6.49-7-.41-5-4.89L31.19,56.7l-6.52-2.45-5,4.89-7,.41L10.21,66,4,69.24l.32,7L0,81.65l3.12,6.22L1.36,94.61,6.75,99l1.13,6.87,6.72,1.85,3.83,5.82,6.89-1,5.87,3.75,5.86-3.75,6.89,1,3.83-5.82,6.72-1.85L55.63,99,61,94.61l-1.76-6.74,3.12-6.22ZM13,78.63c0-4.37,2.18-7.28,7.44-7.28s7.4,2.91,7.4,7.28-2.15,7.2-7.4,7.2S13,82.92,13,78.63Zm12,21H20.49L37.43,71.88h4.41Zm17,.48c-5.25,0-7.44-2.91-7.44-7.2s2.19-7.27,7.44-7.27,7.4,2.91,7.4,7.27S47.22,100.14,42,100.14Z"/><g class="cls-2"><path class="cls-3" d="M398.12,127.72l-10.24-17.33a7.21,7.21,0,0,0-1.59-1.79h.44V74.07a4.33,4.33,0,0,0,3.61-4.26s0,0,0-.06h0l-3.61-7.18V49a7.19,7.19,0,0,0-7-7.34H352.08V34.13h12.36V15.5h-61.9V34.13h10.34v7.49H287.52a7.18,7.18,0,0,0-7,7.34v14.1l-3.36,6.69h0v.06A4.35,4.35,0,0,0,280.5,74V108.6h.44a6.83,6.83,0,0,0-1.59,1.79l-10.24,17.33a3.19,3.19,0,0,0-.52,2.08h0a3.5,3.5,0,0,0,.93,1.85,8.88,8.88,0,0,0,5.45,1.86H392.28a8.88,8.88,0,0,0,5.45-1.86,3.54,3.54,0,0,0,.92-1.85h0A3.17,3.17,0,0,0,398.12,127.72Zm-84.23-50v18H292.56v-18Zm61.11,0v18H353.67v-18Zm3.28,41.63-.87-1.88h5.08c.36.75.53,1.12.88,1.87Zm5.67,1.24c.36.79.54,1.19.93,2.07h-5.12c-.38-.87-.56-1.27-.92-2.06Zm-17.28-6.39c.37.85.53,1.25.86,2h-5.29c-.29-.79-.43-1.19-.75-2Zm-5.73-1.42c-.36-.91-.55-1.39-1-2.42h5c.47,1,.68,1.52,1.08,2.43Zm13.85,3.45H369.6c-.33-.78-.51-1.18-.88-2h5.12Zm-.83-5.87h5l1.24,2.45h-5Zm-5.88,2.43c-.41-.91-.63-1.39-1.11-2.43h5l1.18,2.44Zm0,4.69.77,1.89h-5.44c-.27-.76-.4-1.14-.68-1.9Zm1.27,3.14c.32.78.48,1.19.83,2h-5.59c-.31-.85-.45-1.25-.73-2Zm.83-3.14h5.22c.35.76.52,1.13.86,1.89h-5.29C370.61,118.58,370.46,118.2,370.14,117.45Zm6.64,3.13c.35.78.52,1.18.9,2h-5.37c-.36-.86-.52-1.26-.85-2Zm0-4.38c-.36-.77-.55-1.17-1-2h5.05c.42.84.61,1.24,1,2Zm-23.06-2,.57,2H346.2c-.13-.79-.2-1.2-.35-2Zm-8.19-1.43c-.19-.91-.3-1.38-.55-2.39h7.54c.34,1,.49,1.49.77,2.4Zm9.1,4.74.5,1.91h-8.48c-.12-.77-.18-1.15-.29-1.92Zm.84,3.16c.21.78.32,1.17.56,2h-8.81c-.17-.83-.24-1.22-.37-2ZM346.8,69.75h0s0,0,0,.06a4.36,4.36,0,0,1-8.71,0s0,0,0-.06h0l-.75-19.47h7.2Zm-17.42,0h0v.06a4.35,4.35,0,0,1-8.7,0v-.06h0l2.26-19.47h7.2Zm-7.79,9.4h24.46v27.57H321.59Zm-28,40.33.95-2h7.95c-.34.8-.51,1.19-.83,2Zm7.55,1.24c-.32.76-.47,1.14-.74,1.91h-8.25c.32-.76.49-1.13.84-1.9Zm-14-8.12c.39-.89.58-1.34.93-2.27h7.53c-.33.94-.51,1.39-.87,2.29Zm8,3.56c.39-.82.58-1.25,1-2.11h7.75c-.32.87-.49,1.28-.83,2.11Zm28.56-2.06c-.11.86-.18,1.27-.32,2.08h-8.15c.23-.81.34-1.23.55-2.08Zm-7.6-1.44c.19-.9.27-1.36.41-2.33h7.53c0,1-.07,1.45-.17,2.34Zm7,4.81c-.14.79-.22,1.18-.35,2l-8.51,0c.22-.78.34-1.17.57-2Zm-9.06-4.81-7.73,0c.29-.9.42-1.36.67-2.31h7.53C314.46,111.3,314.36,111.76,314.15,112.66Zm-.36,1.42c-.23.86-.35,1.28-.6,2.09h-8c.32-.82.48-1.24.79-2.1Zm-1,3.4c-.25.8-.38,1.19-.62,2l-8.33,0,.79-2Zm-8.36-4.84-7.67,0c.36-.89.53-1.35.86-2.29h7.53C304.87,111.28,304.73,111.74,304.42,112.64Zm-1.09,8.07,30.28,0c0,.77,0,1.16,0,2h-31C302.89,121.86,303,121.48,303.33,120.71Zm30.45-6.59c0,.85,0,1.26,0,2.06h-8.2c.12-.81.17-1.22.26-2.08ZM326,112.68c.07-.9.09-1.37.11-2.35h7.53c.09,1,.12,1.46.15,2.36Zm7.78,4.79c0,.78,0,1.16-.06,1.93l-8.59,0c.11-.77.17-1.16.29-2Zm-7.3,6.88H340.8l2,4.58H324.43Zm9.46-8.17c0-.8,0-1.21-.05-2.06h8c.13.86.19,1.26.29,2.06Zm8.35,1.28c.1.78.14,1.16.24,1.93h-8.59v-1.93Zm-8.48-4.76c-.06-.91-.1-1.37-.22-2.37h7.53c.23,1,.32,1.48.48,2.38Zm.23,9.93c-.05-.81-.06-1.2-.08-2h8.73c.11.77.17,1.17.31,2ZM286.55,114h7.62c-.39.87-.58,1.29-1,2.12h-7.66C285.94,115.32,286.15,114.9,286.55,114Zm6,3.46-1,2h-7.72c.4-.78.6-1.18,1-2ZM291,120.73c-.36.77-.54,1.15-.86,1.9h-7.76c.33-.74.52-1.12.89-1.88Zm82.38-70.45,8.28,19.47h0s0,0,0,.06a4.36,4.36,0,0,1-8.71,0s0,0,0-.06h0l-6.77-19.47Zm-14.41,0,5.28,19.47h0s0,0,0,.06a4.36,4.36,0,0,1-8.71,0v-.06h0l-3.77-19.47ZM346.2,19.21h3.16l4.73,5.53V19.21h3.32V30.43h-3.16L349.52,25v5.45H346.2Zm-11.82,0h9.74V21.9H338v1.55h5.23V26H338v1.72h6.23v2.69h-9.85Zm-11.82,0h6.32a3.51,3.51,0,0,1,3.6,3.68v.22a3.53,3.53,0,0,1-3.6,3.7h-2.7v3.62h-3.62Zm-14.11,5.61c0-3.84,2.23-5.81,6.07-5.81s6.09,2,6.09,5.81-2.25,5.8-6.09,5.8S308.45,28.65,308.45,24.82Zm7.7,9.31H348.8v7.49H316.15Zm-.42,16.15L312,69.75h0s0,0,0,.06a4.36,4.36,0,0,1-8.71,0s0,0,0-.06h0l5.27-19.47Zm-14.4,0-6.78,19.47h0v.06a4.35,4.35,0,0,1-8.7,0v-.06h0l8.28-19.47Z"/><rect class="cls-3" x="295.07" y="80.15" width="16.32" height="13.07"/><rect class="cls-3" x="356.18" y="80.15" width="16.32" height="13.07"/><path class="cls-3" d="M323.51,104.56h20.62V81.31H323.51ZM340.3,91.29a1.65,1.65,0,1,1-1.66,1.65A1.65,1.65,0,0,1,340.3,91.29Z"/><path class="cls-3" d="M316.91,25.34v-1a2.29,2.29,0,0,0-2.39-2.6c-1.59,0-2.37,1.06-2.37,2.6v1a2.39,2.39,0,1,0,4.76,0Z"/><path class="cls-3" d="M328.81,23.09V23a1,1,0,0,0-1.14-1.1h-1.49v2.32h1.49A1,1,0,0,0,328.81,23.09Z"/></g><path class="cls-5" d="M72.33,112.66a26.09,26.09,0,0,0,3.07.8A24.27,24.27,0,0,1,72.33,112.66Z"/><path class="cls-5" d="M78.94,113.92c.52,0,1,0,1.56,0C80,114,79.46,114,78.94,113.92Z"/><path class="cls-5" d="M75.64,113.51c.42.08.84.14,1.26.2C76.48,113.65,76.06,113.59,75.64,113.51Z"/><path class="cls-5" d="M77.36,113.77c.37,0,.75.08,1.12.11C78.11,113.85,77.73,113.82,77.36,113.77Z"/><path class="cls-5" d="M70.75,112.08c.47.19,1,.36,1.44.53C71.7,112.44,71.22,112.27,70.75,112.08Z"/><path class="cls-6" d="M59.78,103.74c.23.43.06.28-1.26-1.76.33.51.68,1,1,1.48A3,3,0,0,0,59.78,103.74Z"/><path class="cls-7" d="M57.81,76.53c.6-.21,1.25-.13,1.85-.3.36-.1.35-.32.35-.64s.33-.64.69-.78A2.51,2.51,0,0,0,62,73.73c.21-.35,1-1.53,1.39-.72s.7,1.46,1.72,1.42a1.64,1.64,0,0,0,1.48-1.62c0-1-1.31-.92-1.2-2s1.43-1.79,2.31-2.28c0,0,.63-.34.55-.4-.29-.19-1,.13-1.31.26-.54.28-1.31,1.44-2,1s.82-1.68,1.15-1.84.9-.14,1.16-.47.22-.71.36-1A3.43,3.43,0,0,1,70,64.45c.68-.12,1.58-.52,1.65-1.28.22-.09.44-.16.67-.24.8.38,1.55.86,2.36,1.22.36.16,1.06.52,1.46.26.64-.42-.12-1.69.39-2.24s1.22-.06,1.69-.07c.11,0,.56-.14.62,0s-.08.37-.14.5c-.22.51-.18,1,.53.87a2.07,2.07,0,0,0,1.27-.92l1.16.5C81,64.62,85,63,85.23,63.76c.07.26-.41.56-.62.56s-.41-.29-.53-.19-.27.88-.29,1.2c0,0,0,.47-.08.38-.64-.6-1.46-.93-2.11-1.52a1.88,1.88,0,0,0-.72-.53c-.36-.09-.71.25-.94.48-.85.83-1.81,2-1.68,3.32,0,.19.11.58.38.54s.58-.72.82-1c.51-.52,1.86-1.11,2.27-.15.27.65-.66,1-1.1,1.18-.15.07-.47.18-.52.37s.56.42.71.44c.83.11,1.44-.57,2-1s.26.45.06.68c-.06.06-.27.23-.2.33s.76.19,1,.21A6.51,6.51,0,0,1,87,70.23a9.53,9.53,0,0,1,1.79,1.63l.1.12a15.38,15.38,0,0,0,.87,2.77c.22.48.33.2.35-.19,0-.89-.23-2,.34-2.76,1-1.41,3.34.6,4.11,1.35.61.6,1.64,1.84.91,2.73s-1.48-.39-2.22-.46a1.34,1.34,0,0,0-.85.19c.43.4.9.75,1.34,1.15.2.18.33.36,0,.45s-.87,0-1.11.33,0,.68.11.93c.2.58.58,1.91,0,2.41s-1.49-.11-1.94-.21c-2.25-.49-4.71-.4-6.05,1.74a3.88,3.88,0,0,1-.64,1A4.31,4.31,0,0,1,83,84a1.53,1.53,0,0,0-.79.52c-.25.42.18.95.37,1.3.3.57.94,1.53.82,2.23a.21.21,0,0,1-.3.17A9.55,9.55,0,0,0,78,89.81a2,2,0,0,0-1,1.62c0,1,1.06,1.57,1.71,2.14a6.19,6.19,0,0,1,2.24,3.48c.28,1.33,1.5,1.84,2.75,2,1.1,3.82,3.61,3.21,3.61,3.21.27.69.69,1.91,1.53,2.11.35.09.74-.09,1,.23.53.63.28,1.67.14,2.4-.07.4-.49,1.77.21,1.88a1.32,1.32,0,0,0,1.4-1,7.94,7.94,0,0,0,.07-3.11A10.07,10.07,0,0,1,92,101c.22-.74.69-1.75.39-2.53-.14-.39-.52-.56-.79-.85a3.27,3.27,0,0,1-.75-1.47c-.18-.73-.25-1.84.41-2.36s1.6-.65,2-1.34c.22-.43-.14-.77-.35-1.11a1.88,1.88,0,0,1-.09-1.81c.43-.86,1.51-1.47,1.72-2.43s-1.09-2-1.74-2.68c-.49-.47-1-1-1.44-1.47a4.51,4.51,0,0,1-.89-1.2c-.12-.28.07-.37.33-.32a4.61,4.61,0,0,0,1.77.21,2.37,2.37,0,0,0,1.35-.73,13.31,13.31,0,0,1,.26-1.64,1,1,0,0,1,.3-.57c.33-.23.57-.23.8-.64a4.94,4.94,0,0,1,.61-1,3.77,3.77,0,0,1,.86-.62c.55-.31,1-.64.9-1.34-.17-1.21-1.05-2.23-1.32-3.42-.08-.35-.13-1.33.44-.76A3.55,3.55,0,0,1,97.4,72c.1.22.24.57.48.68s.1-1,.07-1.11c-.66-2.17-2.54-3.35-4.17-4.76-.14-.12-1.14-.86-1-1.11a1.79,1.79,0,0,0,1.12-.36,26.17,26.17,0,1,1-34.13,38.42c-.29-.51-1.15-1.87-1.26-1.76.3-.32.59-.64,1-.41a3.67,3.67,0,0,1,1,.87c.87.93,1.64,2,2.57,2.83.45.43.94.82,1.37,1.28a5.91,5.91,0,0,0,.88.92c.64.46,1.12-1.24,1.19-1.6a2.66,2.66,0,0,0-1.09-2.46c-.47-.43-1.64-1-1.7-1.69s.79-1.41.52-2.15c-.17-.44-.74-.58-1-.91a2.9,2.9,0,0,1-.64-1.36,3.83,3.83,0,0,0-.32-1.11c-.18-.31-.53-.5-.73-.81a2.22,2.22,0,0,1-.17-2.6c.23-.26.74-.41.84-.77s-.22-.48-.4-.62c-.56-.45-1.24-.92-1-1.74s.82.12,1.22.09.37-1.15.46-1.51,1.45.17,1.65.22c.82.23,2,.62,2.75-.07s.69-1.56,1-2.3a14.88,14.88,0,0,1,1.72-2.46c.45-.67-.59-.46-1-.61-.77-.3-.9-1.22-.91-2s.11-1.31.15-2a2.49,2.49,0,0,0-.13-1.21c-.27-.53-1-.34-1.48-.53s-.36-.53-.4-.86c-.07-.52-.41-.61-.86-.72A12.08,12.08,0,0,0,62.36,75a.69.69,0,0,0-.72.53c-.06.25,0,.82-.15,1s-.33.07-.43.12a4.5,4.5,0,0,0-1.27,1.3c-.12.15-.36.58-.59.6s-.48-.31-.64-.41c-.42-.26-1-.39-1.32-.81S57.5,76.63,57.81,76.53Z"/><path class="cls-6" d="M59.78,103.74a3,3,0,0,1-.22-.28c-.36-.48-.71-1-1-1.48C58.63,101.87,59.49,103.23,59.78,103.74Z"/><path class="cls-5" d="M106.68,87.79v0A26.18,26.18,0,0,1,80.51,114h0A26.21,26.21,0,0,0,106.68,87.79Z"/><path class="cls-5" d="M103.9,76.07c.15.3.3.6.43.9C104.19,76.67,104.05,76.37,103.9,76.07Z"/><path class="cls-5" d="M103.86,76l0,.09Z"/><path class="cls-5" d="M104.33,77l.07.15Z"/><path class="cls-5" d="M104.84,78.16c.14.35.27.7.39,1.06C105.11,78.86,105,78.51,104.84,78.16Z"/><path class="cls-5" d="M104.4,77.12c.13.29.26.59.38.89C104.66,77.71,104.53,77.41,104.4,77.12Z"/><path class="cls-8" d="M103.86,76a26.4,26.4,0,0,0-10-10.66,1.79,1.79,0,0,1-1.12.36s-.5,0,2.71,2.51,2.91,6,1.9,3.79-1.9-1.39-.3,1.72-.84,2.11-1.67,4-1.14-.4-1.54,3.21a2.56,2.56,0,0,1-2.8.61c-1.81-.61.3,1.6,2.2,3.4s1.31,2.41.3,3.51-1.4,2-.5,3.21-1.4,1.61-2,2.31-.51,3,.9,4-.7,3.21-.4,6.32.23,4.41-1.19,4.61.18-2.71-.42-4-1.3.9-2.7-2.61c0,0-2.51.61-3.61-3.21,0,0-2.21-.3-2.61-1.5s.1-2-3.11-4.61,2.21-4.62,5.11-4.72c0,0,1.07.44-.8-2.91-.81-1.46,1.61-1.1,2.21-2.4a4.39,4.39,0,0,1,4.81-2.51c2.81.3,3.61,1.31,3.71-.4s-1.2-2.5.2-2.71.7-.3-.8-1.7a1.41,1.41,0,0,1,1.8.3c.91.9,2.51-.5.61-2.51s-4.92-3.51-4.72.3S88.88,72,88.88,72s-2.11-2.69-4.72-2.89-1-.3-1-1.2-1.2,1.5-2.66.9,1.56-.8,1.26-1.8-2-.71-2.71.6-1.5-.7.3-2.81,1.51-.8,3.21.1,1,1.4,1.31-.1.4.1,1.2-.7-1.43-.43-2.61-.3-.8-.71-.8-.71l-1.16-.5s-.75,1.1-1.65.9.6-1.6-.3-1.4-2.1-.6-2.2.6.7,2.81-2.61,1c-.67-.36-1.12-.59-1.42-.74A26.18,26.18,0,0,1,103.86,76Z"/><path class="cls-5" d="M104.78,78l.06.15Z"/><path class="cls-5" d="M71.65,63.17a1,1,0,0,1-.52.81c-1.3.8-.9.09-2.61,1.1s-.6,2.11-1.9,2.31-2.51,2-1.51,2.1,1.11-1.1,2.61-1.3-.6.5-1.6,1.4-1,2,0,2.39.26,2.73-1.38,2.43-1-2-1.93-1.61-.6,1.4-2.11,2,.2,1.4-1.6,1.5-2.71.8-1.11,1.5.8,1.31,2.21-.4,1.27-.07,1.4-1.7,2.41-.1,3.61.1.2,1.4,1.31,1.6,1.6-.1,1.3,2.51.4,3.21,1.61,3.21-1,1.4-1.61,3.21-.7,2.91-3.31,2.21-1.8-.71-2.11.7-1.4-.81-1.6.6,2.51,1.7,1,2.6-.41,3,.3,3.51.2,2.31,1.7,3.11-.7,2.21.2,3.11,3.31,2,2.41,4.22-.91.9-2.81-.71-3.51-4.31-4.42-4.21c-.32,0-.47.29-.67.5a26.36,26.36,0,0,0,12.21,10.09,26.17,26.17,0,0,1,.92-48.9Z"/><path class="cls-5" d="M72.09,63l-.44.16h0Z"/><path class="cls-9" d="M54.87,93.05l51.28-10.28c0,.19.09.38.13.58a26.49,26.49,0,0,1-20.5,30.34l-.87.15c-.62.11-1.24.19-1.87.25-.47,0-.94.08-1.41.1l-1.24,0a25.69,25.69,0,0,1-2.76-.16l-1.3-.19c-.75-.12-1.49-.3-2.23-.46a21.06,21.06,0,0,1-3.26-1.07,25.16,25.16,0,0,1-5.9-3.31h0c-.54-.4-1.07-.83-1.57-1.27,0,0,.13.15.11.17a15.06,15.06,0,0,1-1.69-1.65h0a26,26,0,0,1-6.9-13.08S54.88,93.1,54.87,93.05Z"/><path class="cls-10" d="M52.77,89.84l4.54,28.7h46l5-28.7Zm17,7.73H61.25l-.79-6.32h8.86Zm.5,7.34H62.17l-.79-6.33h8.45Zm20.5-6.33h8.45l-.79,6.33h-8.1Zm9.37-7.33-.79,6.32H90.83l.44-6.32Zm.56,6.32.85-6.32h5.08l-1.09,6.32Zm-1,7.34.85-6.33h4.8l-1.09,6.33Zm3.3,7.33H98.73l.84-6.33h4.53ZM98.09,117l.5-3.72h4.25L102.2,117Zm-.59-4.73H89.82l.43-6.33h8Zm-8,4.73.26-3.72h7.63L96.91,117Zm0-19.4H81l0-6.32h8.86ZM89,104.91h-8.1l0-6.33h8.45Zm-.45,7.33H80.91l0-6.33h8ZM80.88,117l0-3.72h7.63L88.31,117Zm-8.82-3.72h7.63V117H72.28Zm-.45-7.34h8l0,6.33H72Zm-.44-7.33h8.45l0,6.33h-8.1Zm-.06-1-.38-6.32h8.86l0,6.32Zm-7.9,15.68h7.63L71.1,117H63.68Zm-.12-1-.8-6.33h8l.44,6.33Zm-5.06,1h4l.5,3.72H58.67Zm-1.27-7.34H61l.85,6.33h-4ZM55.5,98.58H60l.85,6.33H56.59Zm-1.26-7.33h4.81l.85,6.32H55.33Z"/><path class="cls-10" d="M52.43,122.16l3.16-.2,0-4.25-7-39.07-21.52.11v-3.2l24.28,0L59,118.49v3.31l34.84-1.65.67-2h3.88l-1.89,5.5-42.74,2a2.84,2.84,0,0,0-2,1l-1,1.16a.78.78,0,0,0,.19,1.18l10.85,3.52,42.94.08a1.31,1.31,0,0,1,1.3,1.31v0a1.31,1.31,0,0,1-1.3,1.31H59.48l-13-5.51a1.42,1.42,0,0,1-.27-2.18l4.31-4.5A2.89,2.89,0,0,1,52.43,122.16Z"/><path class="cls-11" d="M68.13,139.5a6,6,0,1,1-6-6A6,6,0,0,1,68.13,139.5Z"/><path class="cls-5" d="M65.41,139.5a3.29,3.29,0,1,1-3.29-3.29A3.29,3.29,0,0,1,65.41,139.5Z"/><path class="cls-11" d="M102.85,139.5a6,6,0,1,1-6-6A6,6,0,0,1,102.85,139.5Z"/><path class="cls-5" d="M100.13,139.5a3.29,3.29,0,1,1-3.29-3.29A3.29,3.29,0,0,1,100.13,139.5Z"/><rect class="cls-11" x="25.73" y="74.51" width="22.06" height="5.19"/><g class="cls-12"><path class="cls-13" d="M103.8,75.89l.06.09C103.72,75.71,103.73,75.74,103.8,75.89Z"/><path class="cls-13" d="M106.68,87.74c0,.08,0,.17,0,.25v.1C106.68,88,106.68,87.86,106.68,87.74Z"/><path class="cls-13" d="M98.31,118.54h5l5-28.7H106.6c.05-.61.06-1.24.07-1.85a27.34,27.34,0,0,0-.73-6.31,26.46,26.46,0,0,0-.94-3.11c-.21-.55-.44-1.11-.69-1.65l-.51-1A26.06,26.06,0,0,0,99,69.3c-.47-.47-1-.92-1.46-1.35h0a25.24,25.24,0,0,0-3.61-2.63h0a26.48,26.48,0,0,0-5.72-2.52H83.12a2.35,2.35,0,0,0-2.35,2.34v59.29l15.77-.74Z"/></g><polygon class="cls-14" points="159.54 139.53 125.42 139.53 132.49 116.56 152.46 116.56 159.54 139.53"/><rect class="cls-11" x="94.87" y="52.06" width="95.21" height="73.81" rx="2.57"/><rect class="cls-8" x="103.44" y="61.05" width="78.07" height="50.71"/><path class="cls-11" d="M161.05,145.52l-37.2-.29a3.94,3.94,0,0,1-4.17-3.66v-.08a4,4,0,0,1,4.23-3.6l37.2.29a3.94,3.94,0,0,1,4.17,3.66v.08A4,4,0,0,1,161.05,145.52Z"/><path class="cls-8" d="M174.17,119.93a1.31,1.31,0,1,1-1.31-1.32A1.31,1.31,0,0,1,174.17,119.93Z"/><path class="cls-8" d="M177.84,119.93a1.32,1.32,0,1,1-1.31-1.32A1.31,1.31,0,0,1,177.84,119.93Z"/><path class="cls-8" d="M181.51,119.93a1.32,1.32,0,1,1-1.31-1.32A1.31,1.31,0,0,1,181.51,119.93Z"/><rect class="cls-15" x="111.62" y="68.8" width="19.15" height="19.67"/><rect class="cls-16" x="132.46" y="68.8" width="19.15" height="19.67"/><rect class="cls-17" x="153.3" y="68.8" width="19.15" height="19.67"/><rect class="cls-16" x="111.62" y="90.59" width="19.15" height="19.67"/><rect class="cls-17" x="132.46" y="90.59" width="19.15" height="19.67"/><path class="cls-18" d="M123.46,99.77A9.69,9.69,0,0,1,125,93.45H122.7a1.93,1.93,0,0,1-.32,1.16,1.36,1.36,0,0,1-2.29,0,1.86,1.86,0,0,1-.32-1.16h-2.3A9.68,9.68,0,0,1,119,99.77c-.15,1.51-1,1.74-1.62,3a9.72,9.72,0,0,0-.71,4.75h9.11a9.88,9.88,0,0,0-.72-4.75C124.43,101.51,123.61,101.28,123.46,99.77Z"/><rect class="cls-19" x="153.17" y="92.27" width="19.28" height="16.31" rx="1.76"/><path class="cls-5" d="M156.47,97.11l.88,5.09h8.16l.81-5.09Zm6.91.25H165l-.15,1.12H163.3Zm-.09,1.3h1.5l-.14,1.12h-1.44Zm-3.64,1.12h-1.43l-.15-1.12h1.51Zm-.17-2.42.08,1.12h-1.51l-.14-1.12ZM157,98.48l-.19-1.12h.9l.15,1.12Zm.23,1.3-.2-1.12h.86l.15,1.12Zm0,.18h.8l.15,1.12h-.76Zm.34,2-.12-.66h.76l.08.66Zm.69-2h1.43l.07,1.12h-1.36Zm.24,2-.08-.66h1.36l0,.66Zm1.25-4.56h1.58v1.12H159.8Zm.08,1.3h1.5v1.12h-1.44Zm.08,1.3h1.43v1.12H160Zm.12,2,0-.66h1.36v.66Zm2.85,0h-1.32v-.66h1.36Zm0-.84h-1.37V100H163Zm.08-1.3h-1.44V98.66h1.5Zm-1.44-1.3V97.36h1.57l-.07,1.12Zm2.83,3.44h-1.31l0-.66h1.36Zm-1.26-.84.08-1.12h1.43l-.14,1.12Zm2.15.84h-.68l.09-.66h.71Zm.15-.84h-.71l.15-1.12h.75Zm.22-1.3h-.76l.15-1.12h.8Zm.23-1.3h-.82l.16-1.12h.85Z"/><path class="cls-5" d="M166.38,102.84l-.56,0v-.76l1.24-6.93,3.82,0v-.57h-4.31l-1.35,7.62v.59l-6.19-.29-.12-.35h-.69l.34,1,7.59.35a.58.58,0,0,1,.36.17l.18.21a.14.14,0,0,1,0,.21l-1.92.62-7.62,0a.23.23,0,0,0-.24.23h0a.23.23,0,0,0,.24.23h8l2.31-1a.26.26,0,0,0,0-.39l-.76-.8A.54.54,0,0,0,166.38,102.84Z"/><path class="cls-5" d="M164.66,104.85a1.07,1.07,0,1,0,1.07,1.07A1.07,1.07,0,0,0,164.66,104.85Zm0,1.66a.59.59,0,0,1-.58-.59.58.58,0,0,1,1.16,0A.59.59,0,0,1,164.66,106.51Z"/><path class="cls-5" d="M158.5,104.85a1.07,1.07,0,1,0,1.06,1.07A1.07,1.07,0,0,0,158.5,104.85Zm0,1.66a.59.59,0,0,1-.59-.59.59.59,0,0,1,1.17,0A.59.59,0,0,1,158.5,106.51Z"/><rect class="cls-5" x="167.2" y="94.38" width="3.92" height="0.92"/><path class="cls-19" d="M145.83,96.54l0,0a6,6,0,0,0,0-4.42H145a2.73,2.73,0,0,1,.36.71,5.24,5.24,0,0,1-.06,3.28l-.3-.21a9.58,9.58,0,0,1,.28-2.83,3.36,3.36,0,0,0-.48-.75,6.39,6.39,0,0,0-.5,3.22,1.73,1.73,0,0,0-2.25,1,1.74,1.74,0,0,0-2.31-1h0a6.38,6.38,0,0,0-.48-3.21,3.22,3.22,0,0,0-.48.77,9.61,9.61,0,0,1,.26,2.81l.05,0-.34.24h0a5.23,5.23,0,0,1-.06-3.3,2.56,2.56,0,0,1,.35-.71h-.79a5.9,5.9,0,0,0,0,4.44s2.16,2.64,1,5.48a16.61,16.61,0,0,1-1.45,3.27s3.18.62,3.44,3.61h1.53c.26-3,3.44-3.61,3.44-3.61A17.31,17.31,0,0,1,144.8,102C143.67,99.18,145.83,96.54,145.83,96.54Z"/><path class="cls-20" d="M154.46,80.32v0Z"/><path class="cls-20" d="M154.46,80.32h0S154.45,80.33,154.46,80.32Z"/><path class="cls-20" d="M171.2,80.32a25.64,25.64,0,0,0-3-6.3,13.76,13.76,0,0,1-10.76,0,22.15,22.15,0,0,0-3,6.28v0c.4,1,1.95,2.68,7.54,3.49l.83-1.57.82,1.57C169.24,83,170.8,81.36,171.2,80.32Z"/><path class="cls-20" d="M163,73.26a5.35,5.35,0,0,0,.8-.25l-.66,0Z"/><path class="cls-20" d="M162.63,73.28a3,3,0,0,0-.21-.25l-1.11,0A2.29,2.29,0,0,0,162.63,73.28Z"/><path class="cls-20" d="M168.06,73.72l.05,0c-.41-.66-.7-1.08-.7-1.08a20.69,20.69,0,0,1-2.82.35,4,4,0,0,1-1.68.44l.8.92-.62.15-.26-1-.63,1.11-.58-.22,1.09-.88c-.81.14-1.79-.06-1.9-.49a19.78,19.78,0,0,1-2.57-.33s-.28.42-.7,1.08l.06,0A13.37,13.37,0,0,0,168.06,73.72Z"/><path class="cls-20" d="M162.92,73h-.18a2.2,2.2,0,0,1,.11.27A2.75,2.75,0,0,1,162.92,73Z"/><path class="cls-20" d="M154.26,80.77a2.32,2.32,0,0,0,.45,2.34,5.12,5.12,0,0,0,1.46.63c.51.19,1,.36,1.54.52a36.38,36.38,0,0,0,3.58,1l.51-1C156.21,83.45,154.66,81.81,154.26,80.77Z"/><path class="cls-20" d="M171.35,80.77a3.9,3.9,0,0,1-1.81,1.82,16.38,16.38,0,0,1-5.74,1.67l.52,1h0c.82-.18,1.62-.4,2.43-.63s1.55-.47,2.32-.74c.43-.15.87-.31,1.3-.48a1.69,1.69,0,0,0,.83-.61A2.84,2.84,0,0,0,171.35,80.77Z"/><polygon class="cls-20" points="162.83 73.41 162.83 73.41 162.83 73.41 162.83 73.41"/><path class="cls-20" d="M161.31,73c-.11-.11-.08-.24.1-.37s.74.15,1,.42h.32c-.24-.53-.78-1.36-1.58-.73-.3.25-.4.46-.35.63A1.77,1.77,0,0,0,161.31,73Z"/><path class="cls-20" d="M164.19,72.2c-.74-.51-1.11.31-1.27.84h.2c.64-1,1-.64,1-.36,0,.11-.16.23-.38.33a6,6,0,0,0,.81-.05C164.8,72.78,164.69,72.54,164.19,72.2Z"/><path class="cls-21" d="M103.38,63.13V74.62a3.34,3.34,0,0,0,2.17-3.11v0h0s0,0,0,0a3.36,3.36,0,0,0,6.72,0v0h0s0,0,0,0a3.36,3.36,0,0,0,6.72,0v0h0s0,0,0,0a3.37,3.37,0,0,0,6.73,0s0,0,0,0h0v0a3.36,3.36,0,0,0,6.72,0s0,0,0,0h0v0a3.36,3.36,0,0,0,6.72,0v0h0v0a3.36,3.36,0,0,0,6.72,0v0h0s0,0,0,0a3.36,3.36,0,0,0,6.72,0v0h0s0,0,0,0a3.36,3.36,0,0,0,6.72,0v0h0s0,0,0,0a3.37,3.37,0,0,0,6.73,0s0,0,0,0h0v0a3.36,3.36,0,0,0,6.72,0s0,0,0,0h0v0a3.36,3.36,0,0,0,6.72,0v0h0v0a3.34,3.34,0,0,0,1.95,3V63.13Z"/><polygon class="cls-22" points="103.26 57.66 98.84 67.88 105.54 67.88 109.28 57.66 103.26 57.66"/><polygon class="cls-5" points="109.28 57.66 105.54 67.88 112.24 67.88 115.3 57.66 109.28 57.66"/><polygon class="cls-22" points="115.3 57.66 112.24 67.88 118.94 67.88 121.32 57.66 115.3 57.66"/><polygon class="cls-5" points="121.32 57.66 118.94 67.88 125.64 67.88 127.34 57.66 121.32 57.66"/><polygon class="cls-22" points="127.34 57.66 125.64 67.88 132.34 67.88 133.36 57.66 127.34 57.66"/><polygon class="cls-5" points="133.36 57.66 132.34 67.88 139.04 67.88 139.38 57.66 133.36 57.66"/><polygon class="cls-22" points="139.38 57.66 139.04 67.88 145.75 67.88 145.41 57.66 139.38 57.66"/><polygon class="cls-5" points="145.41 57.66 145.75 67.88 152.45 67.88 151.43 57.66 145.41 57.66"/><polygon class="cls-22" points="151.43 57.66 152.45 67.88 159.15 67.88 157.45 57.66 151.43 57.66"/><polygon class="cls-5" points="157.45 57.66 159.15 67.88 165.85 67.88 163.47 57.66 157.45 57.66"/><polygon class="cls-22" points="163.47 57.66 165.85 67.88 172.55 67.88 169.49 57.66 163.47 57.66"/><polygon class="cls-5" points="169.49 57.66 172.55 67.88 179.25 67.88 175.51 57.66 169.49 57.66"/><polygon class="cls-22" points="181.53 57.66 175.51 57.66 179.25 67.88 185.95 67.88 181.53 57.66"/><path class="cls-23" d="M98.85,67.88s0,0,0,0a3.35,3.35,0,1,0,6.7,0v0Z"/><path class="cls-24" d="M105.55,67.88s0,0,0,0a3.35,3.35,0,0,0,6.7,0v0Z"/><path class="cls-23" d="M112.25,67.88s0,0,0,0a3.35,3.35,0,1,0,6.7,0v0Z"/><path class="cls-24" d="M119,67.88s0,0,0,0a3.35,3.35,0,1,0,6.7,0v0Z"/><path class="cls-23" d="M125.65,67.88s0,0,0,0a3.35,3.35,0,1,0,6.7,0v0Z"/><path class="cls-24" d="M132.35,67.88v0a3.35,3.35,0,1,0,6.7,0s0,0,0,0Z"/><path class="cls-23" d="M139.05,67.88v0a3.35,3.35,0,1,0,6.7,0s0,0,0,0Z"/><path class="cls-24" d="M145.75,67.88v0a3.35,3.35,0,1,0,6.7,0s0,0,0,0Z"/><path class="cls-23" d="M152.45,67.88v0a3.35,3.35,0,1,0,6.7,0s0,0,0,0Z"/><path class="cls-24" d="M159.15,67.88v0a3.35,3.35,0,0,0,6.7,0s0,0,0,0Z"/><path class="cls-23" d="M165.85,67.88v0a3.35,3.35,0,1,0,6.7,0s0,0,0,0Z"/><path class="cls-24" d="M172.55,67.88v0a3.35,3.35,0,1,0,6.7,0s0,0,0,0Z"/><path class="cls-23" d="M179.25,67.88v0a3.35,3.35,0,1,0,6.7,0s0,0,0,0Z"/><path class="cls-20" d="M137.78,84h.41l.45,0s-.24-3.88.22-5A11.11,11.11,0,0,1,142.09,84h1.45c1-.13,2.4-.32,3.75-.55,0,0,2-2.17-.49-2.06a3.45,3.45,0,0,1-2.14-.21s-.21,2.7-2.88-.14c0,0-3.24-3.56-2.93-6,0,0-1.15-1.24-1.85,2.19C137,77.19,138.33,82.8,137.78,84Z"/><path class="cls-25" d="M116.71,79.52a4.09,4.09,0,0,0-.89,3.75h10.76a4.58,4.58,0,0,0-.82-3.68C121.45,82.61,118.16,80.74,116.71,79.52Z"/><path class="cls-25" d="M125.76,79.11a4.33,4.33,0,0,0-2.51-1.35.58.58,0,0,0,0-.19V76.29a.55.55,0,0,0-.55-.55h-3.16a.55.55,0,0,0-.55.55v1.28a.6.6,0,0,0,0,.24A4.57,4.57,0,0,0,116.71,79C118.16,80.25,121.45,82.12,125.76,79.11Zm-6.16-1.4v-.65a.41.41,0,0,1,.4-.41h2.31a.42.42,0,0,1,.41.41v.61a11.45,11.45,0,0,0-1.36-.08A13,13,0,0,0,119.6,77.71Z"/><path class="cls-11" d="M319.34,93.6a4.56,4.56,0,1,1,4.56-4.55A4.55,4.55,0,0,1,319.34,93.6Zm0-7.12a2.57,2.57,0,1,0,2.57,2.57A2.57,2.57,0,0,0,319.34,86.48Z"/><path class="cls-11" d="M350.94,93.6a4.56,4.56,0,1,1,4.56-4.55A4.55,4.55,0,0,1,350.94,93.6Zm0-7.12a2.57,2.57,0,1,0,2.57,2.57A2.57,2.57,0,0,0,350.94,86.48Z"/><path class="cls-11" d="M320.51,87.22a36.91,36.91,0,0,1-.3-4.53c0-13.76,1.1-24.29,14.87-24.29,12.43,0,14.87,8.91,14.87,24.29a39,39,0,0,1-.3,4.53h2a41.29,41.29,0,0,0,.29-4.53c0-13.3-1.3-26.28-16.85-26.28s-16.86,11.9-16.86,26.28a38.71,38.71,0,0,0,.3,4.53Z"/><rect class="cls-22" x="304.1" y="78.03" width="62.08" height="67.49"/><rect class="cls-15" x="291.72" y="78.03" width="62.08" height="67.49"/><path class="cls-8" d="M308.38,92a3.29,3.29,0,1,1,3.29-3.29A3.29,3.29,0,0,1,308.38,92Zm0-5.15a1.86,1.86,0,1,0,1.85,1.86A1.86,1.86,0,0,0,308.38,86.89Z"/><path class="cls-8" d="M339.4,92a3.29,3.29,0,1,1,3.29-3.29A3.3,3.3,0,0,1,339.4,92Zm0-5.15a1.86,1.86,0,1,0,1.86,1.86A1.85,1.85,0,0,0,339.4,86.89Z"/><path class="cls-11" d="M309.27,87.22a36.91,36.91,0,0,1-.3-4.53c0-13.76,1.09-24.29,14.87-24.29,12.43,0,14.86,8.91,14.86,24.29a39,39,0,0,1-.29,4.53h2a41.29,41.29,0,0,0,.29-4.53c0-13.3-1.3-26.28-16.85-26.28S307,68.31,307,82.69a41,41,0,0,0,.29,4.53Z"/><path class="cls-8" d="M327.52,113.38a20.8,20.8,0,0,1,3.3-13.54h-4.93a3.9,3.9,0,0,1-.68,2.48,2.9,2.9,0,0,1-4.9,0,4,4,0,0,1-.69-2.48H314.7a20.8,20.8,0,0,1,3.3,13.54c-.34,3.24-2.08,3.73-3.47,6.49-2,3.95-1.64,9.1-1.54,10.19h19.54c.09-1.09.44-6.24-1.54-10.19C329.6,117.11,327.86,116.62,327.52,113.38Z"/><path class="cls-8" d="M322.76,138.07a22.7,22.7,0,1,1,22.7-22.7A22.72,22.72,0,0,1,322.76,138.07Zm0-43.67a21,21,0,1,0,21,21A21,21,0,0,0,322.76,94.4Z"/><g class="cls-26"><polygon class="cls-13" points="308.04 110.78 311.72 110.78 311.72 97.53 308.04 97.53 291.72 97.53 291.72 145.52 304.1 145.52 308.04 145.52 308.04 115.77 308.04 110.78"/><path class="cls-13" d="M306.41,80.5c-.79-.84-1.6-1.67-2.43-2.47H291.72v3.18a18.12,18.12,0,0,1,4.72,3.87c1.81,1.92-1.16,4.16-4.72,6v4.34C301,91.29,311,85.41,306.41,80.5Z"/></g><rect class="cls-27" x="240.81" y="97.53" width="55.54" height="47.98"/><rect class="cls-28" x="240.81" y="102.53" width="55.54" height="13.24"/><rect class="cls-27" x="237.13" y="97.53" width="62.9" height="13.24"/><rect class="cls-29" x="263" y="97.53" width="9.93" height="47.97"/><rect class="cls-30" x="263" y="97.53" width="9.93" height="13.71"/><path class="cls-29" d="M265.53,83.28c-4.21-16-13.24-9-20.28-1.5s24.5,17.5,24.5,17.5Zm-12.32,2.28c3.43-3.64,7.83-7.07,9.89.73l2,7.79S249.78,89.2,253.21,85.56Z"/><path class="cls-29" d="M294.72,80.5c-8-8.5-18.31-16.52-23.1,1.7l-4.8,18.22S302.73,89,294.72,80.5ZM271.66,94.43l2.25-8.55c2.25-8.55,7.08-4.79,10.84-.8S271.66,94.43,271.66,94.43Z"/><path class="cls-29" d="M264.48,95.68l-15,9.94,9,.57,1.1,8.39L268,98.82A11,11,0,0,1,264.48,95.68Z"/><path class="cls-29" d="M270.54,95.68l-.21.23A5.88,5.88,0,0,1,268.82,97l6.82,14.27,1.09-6.11,6.59-.12Z"/><g class="cls-26"><path class="cls-31" d="M257.13,90.8c-2.93-1.54-5.27-3.38-4.1-5h-6v-2.9l2.88,2.2V82.57a16.2,16.2,0,0,0,4-2.19L251.87,78a13.1,13.1,0,0,0,1.95-1.77l2.43,2.08A15.7,15.7,0,0,0,259,73.79c-4.28-1.11-9.42,3.36-13.79,8-3.74,4,3.39,8.65,10.91,12.17h1Z"/><path class="cls-31" d="M253.17,137.81V115.15a3.29,3.29,0,0,0,1.09.2,3.17,3.17,0,0,0,3.17-3.17v0h0L254,97.53H237.13v13.25h3.68v34.74H256.1v-7.71Z"/></g><rect class="cls-11" x="228.74" y="70.46" width="6.71" height="12.43"/><circle class="cls-32" cx="232.1" cy="58.89" r="14.7" transform="translate(121.77 271.41) rotate(-76.8)"/><path class="cls-18" d="M230.23,57.47c0,1.34-1.35,2-2.63,2.92h2.71v1.52h-5.13v-.43a2.12,2.12,0,0,1,.86-1.61c1.41-1.25,2.41-1.75,2.41-2.33,0-.34-.22-.66-.77-.66a.8.8,0,0,0-.87.85v.18h-1.6a1.48,1.48,0,0,1,0-.2c0-1.27.88-2.1,2.65-2.1C229.32,55.61,230.23,56.35,230.23,57.47Z"/><path class="cls-18" d="M234.43,55.61a9.5,9.5,0,0,1-2.25,3.71H234V58a7.35,7.35,0,0,0,1-1.82h.76v3.11h.87v1.32h-.87v1.27H234V60.64h-3V59.3a13.65,13.65,0,0,0,1.73-3.69Z"/><path class="cls-15" d="M242.11,68l3.56,3a17.33,17.33,0,0,0,3.24-5.3l-4.56-1.23A13,13,0,0,1,242.11,68Z"/><path class="cls-15" d="M249.88,56.75l-4.67.51a13.24,13.24,0,0,1,.19,2.2,12.37,12.37,0,0,1-.23,2.37l4.69.51a18.25,18.25,0,0,0,.23-2.88A17.29,17.29,0,0,0,249.88,56.75Z"/><path class="cls-15" d="M244.41,54.55,249,53.32a17.43,17.43,0,0,0-3.16-5.3l-3.57,3A12.65,12.65,0,0,1,244.41,54.55Z"/><path class="cls-15" d="M240.06,69.83a12.77,12.77,0,0,1-1.42.86V68.58l-6.54,5,6.54,5v-2.8a17.39,17.39,0,0,0,4.47-2.42Z"/><path class="cls-15" d="M243.25,45.63a17.56,17.56,0,0,0-5.61-2.88v5a13,13,0,0,1,2.56,1.47Z"/><path class="cls-17" d="M228.83,49.45l.4-.3,4.91-3.69,1.23-.93-3.67-2.76-2.08-1.57-.79-.6v2.82A17,17,0,0,0,230.17,76V71.37a12.46,12.46,0,0,1-1.34-24.2v2.28Z"/><path class="cls-11" d="M239,59.09a1.28,1.28,0,0,1,.51-.58,1.45,1.45,0,0,1,.74-.19,1.24,1.24,0,0,1,.94.35,1.4,1.4,0,0,1,.33,1v2.23h-1v-2q0-.93-.69-.93a.7.7,0,0,0-.59.29A1.11,1.11,0,0,0,239,60v1.89h-1V57.08h1V58.4q0,.36,0,.69Z"/><rect class="cls-11" x="180.89" y="72.7" width="6.47" height="10.19"/><polygon class="cls-29" points="208.8 75.23 160.99 75.23 155.48 48.51 214.31 48.51 208.8 75.23"/><path class="cls-8" d="M171.63,55.58c0,2.41-1.4,3.65-3.8,3.65S164,58,164,55.58s1.39-3.64,3.8-3.64S171.63,53.18,171.63,55.58Zm-5.29-.32v.65a1.5,1.5,0,1,0,3,0v-.65a1.5,1.5,0,1,0-3,0Z"/><path class="cls-8" d="M179.87,59.11h-2l-3-3.42v3.42h-2.07v-7h2l3,3.47V52.06h2.08Z"/><path class="cls-8" d="M181.39,59.11v-7h2.26V57.3h3.61v1.81Z"/><path class="cls-8" d="M190.58,59.11h-2.26v-7h2.26Z"/><path class="cls-8" d="M199.22,59.11h-2l-3-3.42v3.42H192.2v-7h2l3,3.47V52.06h2.08Z"/><path class="cls-8" d="M200.73,59.11v-7h6.1v1.69H203v1h3.27v1.62H203v1.08h3.9v1.69Z"/><path class="cls-8" d="M170.4,66.4v.12h-2.12v0c0-.37-.26-.72-.92-.72s-.93.22-.93.47c0,1,4.11.22,4.16,2.83,0,1.75-1.33,2.46-3.1,2.46-2,0-3.48-.5-3.48-2.51h2.14c0,.76.44.89,1.13.89.41,0,1,0,1-.47,0-1-4.16-.2-4.16-3,0-1.64,1.49-2.25,3.16-2.25S170.37,64.89,170.4,66.4Z"/><path class="cls-8" d="M178.73,71.4h-2.26V68.72H174V71.4h-2.26V64.35H174v2.57h2.49V64.35h2.26Z"/><path class="cls-8" d="M187.56,67.87c0,2.41-1.4,3.65-3.81,3.65s-3.8-1.24-3.8-3.65,1.4-3.64,3.8-3.64S187.56,65.47,187.56,67.87Zm-5.29-.32v.65a1.5,1.5,0,1,0,3,0v-.65a1.5,1.5,0,1,0-3,0Z"/><path class="cls-8" d="M192.73,64.35A2.21,2.21,0,0,1,195,66.67v.13a2.21,2.21,0,0,1-2.26,2.32H191V71.4h-2.26V64.35ZM191,66v1.45H192a.63.63,0,0,0,.71-.68v-.08A.63.63,0,0,0,192,66Z"/><rect class="cls-8" x="164.83" y="61.17" width="41.07" height="1.41"/><rect class="cls-27" x="160.56" y="84.5" width="81.71" height="61.02"/><rect class="cls-33" x="157.39" y="136.99" width="88.11" height="8.53"/><rect class="cls-15" x="166.69" y="115.54" width="16.46" height="11"/><path class="cls-5" d="M165.43,127.55h19v-13h-19Zm2.22-11.24h14.54v9.46H167.65Z"/><rect class="cls-15" x="221.13" y="115.54" width="16.46" height="11"/><path class="cls-5" d="M219.86,127.55h19v-13h-19Zm2.23-11.24h14.54v9.46H222.09Z"/><rect class="cls-5" x="187.17" y="115.01" width="30.04" height="30.51"/><rect class="cls-17" x="189.52" y="117.4" width="25.34" height="25.73"/><path class="cls-5" d="M209.25,128.09a2,2,0,1,0,2,2A2,2,0,0,0,209.25,128.09Z"/><path class="cls-21" d="M160.56,92.14v4.31h0l0,.06v23.41a3.48,3.48,0,0,0,2.28-3.26.43.43,0,0,1,0,0h0v0a3.52,3.52,0,0,0,7,0,.43.43,0,0,1,0,0h0v0a3.52,3.52,0,0,0,7,0,.43.43,0,0,1,0,0h0v0a3.52,3.52,0,0,0,7,0,.43.43,0,0,1,0,0h0v0a3.52,3.52,0,0,0,7,0,.43.43,0,0,1,0,0h0v0a3.52,3.52,0,0,0,7,0,.43.43,0,0,1,0,0h0v0a3.52,3.52,0,0,0,7,0,.43.43,0,0,1,0,0h0v0a3.52,3.52,0,0,0,7,0,.43.43,0,0,1,0,0h0v0a3.52,3.52,0,0,0,7,0v0h0a.43.43,0,0,1,0,0,3.52,3.52,0,0,0,7,0v0h0a.43.43,0,0,1,0,0,3.52,3.52,0,0,0,7,0v0h0a.43.43,0,0,1,0,0,3.52,3.52,0,0,0,7,0v0h0a.43.43,0,0,1,0,0,3.51,3.51,0,0,0,2,3.17V92.14Z"/><polygon class="cls-22" points="162.77 108.56 155.75 108.56 160.52 88.39 166.8 88.39 162.77 108.56"/><polygon class="cls-5" points="169.79 108.56 162.77 108.56 166.8 88.39 173.09 88.39 169.79 108.56"/><polygon class="cls-22" points="176.81 108.56 169.79 108.56 173.09 88.39 179.37 88.39 176.81 108.56"/><polygon class="cls-5" points="183.82 108.56 176.81 108.56 179.37 88.39 185.65 88.39 183.82 108.56"/><polygon class="cls-22" points="190.84 108.56 183.82 108.56 185.65 88.39 191.94 88.39 190.84 108.56"/><polygon class="cls-5" points="197.86 108.56 190.84 108.56 191.94 88.39 198.22 88.39 197.86 108.56"/><polygon class="cls-22" points="204.87 108.56 197.86 108.56 198.22 88.39 204.51 88.39 204.87 108.56"/><polygon class="cls-5" points="211.89 108.56 204.87 108.56 204.51 88.39 210.79 88.39 211.89 108.56"/><polygon class="cls-22" points="218.91 108.56 211.89 108.56 210.79 88.39 217.08 88.39 218.91 108.56"/><polygon class="cls-5" points="225.92 108.56 218.91 108.56 217.08 88.39 223.36 88.39 225.92 108.56"/><polygon class="cls-22" points="232.94 108.56 225.92 108.56 223.36 88.39 229.65 88.39 232.94 108.56"/><polygon class="cls-5" points="239.96 108.56 232.94 108.56 229.65 88.39 235.93 88.39 239.96 108.56"/><polygon class="cls-22" points="246.97 108.56 239.96 108.56 235.93 88.39 242.21 88.39 246.97 108.56"/><path class="cls-23" d="M155.76,108.56v0a3.51,3.51,0,0,0,7,0v0Z"/><path class="cls-24" d="M162.78,108.56v0a3.51,3.51,0,0,0,7,0v0Z"/><path class="cls-23" d="M169.79,108.56v0a3.51,3.51,0,1,0,7,0v0Z"/><path class="cls-24" d="M176.81,108.56v0a3.51,3.51,0,1,0,7,0v0Z"/><path class="cls-23" d="M183.83,108.56v0a3.51,3.51,0,1,0,7,0v0Z"/><path class="cls-24" d="M190.84,108.56v0a3.51,3.51,0,0,0,7,0v0Z"/><path class="cls-23" d="M197.86,108.56v0a3.51,3.51,0,1,0,7,0v0Z"/><path class="cls-24" d="M204.88,108.56v0a3.51,3.51,0,1,0,7,0v0Z"/><path class="cls-23" d="M211.89,108.56v0a3.51,3.51,0,1,0,7,0v0Z"/><path class="cls-24" d="M218.91,108.56v0a3.51,3.51,0,1,0,7,0v0Z"/><path class="cls-23" d="M225.93,108.56v0a3.51,3.51,0,1,0,7,0v0Z"/><path class="cls-24" d="M233,108.56v0a3.51,3.51,0,0,0,7,0v0Z"/><path class="cls-23" d="M240,108.56v0a3.51,3.51,0,0,0,7,0v0Z"/><rect class="cls-34" x="157.79" y="79.38" width="88.85" height="9.04"/><polygon class="cls-35" points="202.64 84.5 204.16 79.54 164.41 79.54 165.93 84.5 202.64 84.5"/></g></g></g></svg>